PathFileType	4	(x/y/z)	S08_M20_T13
DataRate	CameraRate	NumFrames	NumMarkers	Units	OrigDataRate	OrigDataStartFrame	OrigNumFrames
240	240	10	51	mm	240	197	524
Frame#	Time	Sternum			R.Acromium			L.Acromium			Top.Head			R.ASIS			L.ASIS			R.PSIS			L.PSIS			R.Great.Tro			L.Great.Tro			R.Iliac.Crest			L.Iliac.Crest			V.Sacral			R.Thigh.Upper.Post			R.Thigh.Lower.Ant			R.Thigh.Lower.Post			R.Thigh.Upper.Ant			R.Knee.Lat			R.Knee.Med			R.Shank.Upper.Post			R.Shank.Lower.Ant			R.Shank.Lower.Post			R.Shank.Upper.Ant			R.Ankle.Lat			R.Ankle.Med			R.Heel.Upper			R.Heel.Med			R.Heel.Lat			R.Toe.Lat			R.Toe.Med			R.Toe.Tip			L.Thigh.Upper.Post			L.Thigh.Lower.Ant			L.Thigh.Lower.Post			L.Thigh.Upper.Ant			L.Knee.Lat			L.Knee.Med			L.Shank.Upper.Post			L.Shank.Lower.Ant			L.Shank.Lower.Post			L.Shank.Upper.Ant			L.Ankle.Lat			L.Ankle.Med			L.Heel.Upper			L.Heel.Med			L.Heel.Lat			L.Toe.Lat			L.Toe.Med			L.Toe.Tip			Cervical.Spine			Back			
		X1	Y1	Z1	X2	Y2	Z2	X3	Y3	Z3	X4	Y4	Z4	X5	Y5	Z5	X6	Y6	Z6	X7	Y7	Z7	X8	Y8	Z8	X9	Y9	Z9	X10	Y10	Z10	X11	Y11	Z11	X12	Y12	Z12	X13	Y13	Z13	X14	Y14	Z14	X15	Y15	Z15	X16	Y16	Z16	X17	Y17	Z17	X18	Y18	Z18	X19	Y19	Z19	X20	Y20	Z20	X21	Y21	Z21	X22	Y22	Z22	X23	Y23	Z23	X24	Y24	Z24	X25	Y25	Z25	X26	Y26	Z26	X27	Y27	Z27	X28	Y28	Z28	X29	Y29	Z29	X30	Y30	Z30	X31	Y31	Z31	X32	Y32	Z32	X33	Y33	Z33	X34	Y34	Z34	X35	Y35	Z35	X36	Y36	Z36	X37	Y37	Z37	X38	Y38	Z38	X39	Y39	Z39	X40	Y40	Z40	X41	Y41	Z41	X42	Y42	Z42	X43	Y43	Z43	X44	Y44	Z44	X45	Y45	Z45	X46	Y46	Z46	X47	Y47	Z47	X48	Y48	Z48	X49	Y49	Z49	X50	Y50	Z50	X51	Y51	Z51	

197	0.81667	-480.25	1205	336	-605	1429.2	518.77	-613.33	1468.8	185.73	-593.64	1757	372.7	-479.27	995.99	440.97	-494.59	979.41	209.23	-686.68	1013	379.21	-690.4	1014.7	286.2	-526.13	890.68	519.47	-604.46	873.19	154.76	-577.05	1062.3	492.63	-589.92	1061.3	182.5	-706.36	973.66	335.04	-477.17	691.94	496.47	-376.42	627.01	447.05	-443.34	611.18	469.32	-404.85	714.61	473.19	-378.9	524.97	437.51	-423.69	522.93	318.86	-428.45	334.37	448.04	-368.08	276.55	415.63	-426.08	257.5	437.31	-369.68	353.62	427.52	-429.29	94.043	393.68	-404.76	114.56	315.81	-479.35	64.933	344.44	-465.31	38.815	317.14	-472.59	39.778	378.24	NaN	NaN	NaN	-281.7	47.989	301.92	-218.21	70.813	346.35	-659.54	674.24	171	-585.63	571.4	174.48	-655.36	582.96	180.83	-589.06	659.3	160.45	-662.3	487.44	187.39	-644.13	472.06	311.95	-825.89	411.28	184.29	-851.4	303.1	198.33	-884.22	367.38	199.21	-793.95	354.42	186.23	-1001.4	239.25	205.07	-981.68	225.41	291.83	-1040.4	280.66	254.22	-1064.7	260.16	288.69	-1065.6	263.23	224.12	-1018.4	92.386	205.98	-998.67	88.62	319.89	-961.65	37.463	276.78	-678.57	1492.4	345.27	-718.25	1204.8	341.24
198	0.82083	-474.94	1205.9	336.12	-599.39	1430.1	519.01	-608.03	1469.6	185.94	-588.11	1757.9	373.08	-473.86	996.8	441.27	-489.5	980.21	209.55	-681.47	1013.8	379.86	-684.75	1015.2	286.94	-520.9	891.41	519.98	-598.97	873.52	155.55	-571.48	1063.2	493.06	-585	1061.9	183.02	-700.94	974.35	335.79	-473.32	692.33	496.89	-372.88	626.75	447.63	-439.97	611.34	469.78	-400.79	714.49	473.73	-376.08	524.7	437.96	-420.54	523.07	319.13	-427.03	334.44	448.07	-366.87	276.24	415.83	-425.09	257.58	437.3	-368.04	353.35	427.86	-429.09	94.139	393.62	-404.45	114.63	315.82	-479.28	65.026	344.45	-465.27	38.888	317.13	-472.53	39.876	378.24	NaN	NaN	NaN	-281.57	47.774	301.86	-217.98	70.256	346.36	-651.26	673.67	171.24	-576.21	571.66	174.29	-645.97	582.42	180.78	-580.59	659.62	160.44	-651.49	487.22	186.9	-633.13	471.53	311.6	-815.09	412.42	183.6	-841.84	304.57	197.9	-873.83	369.14	198.52	-783.73	355.25	185.72	-992.41	242.52	204.44	-972.64	228.33	291.21	-1030.4	284.61	253.68	-1055	264.49	288.24	-1056	267.66	223.64	-1011.8	95.696	205.21	-991.77	91.408	318.94	-955.92	38.615	275.55	-673.12	1493.3	345.65	-712.91	1205.7	341.87
199	0.825	-469.69	1206.7	336.22	-593.8	1431	519.24	-602.78	1470.5	186.15	-582.59	1758.8	373.45	-468.51	997.63	441.56	-484.46	981.02	209.85	-676.32	1014.6	380.5	-679.19	1015.7	287.66	-515.73	892.18	520.47	-593.5	873.88	156.32	-565.95	1064.1	493.47	-580.13	1062.5	183.52	-695.59	975.05	336.53	-469.56	692.73	497.3	-369.44	626.5	448.21	-436.69	611.52	470.23	-396.84	714.38	474.26	-373.39	524.44	438.41	-417.48	523.21	319.4	-425.7	334.51	448.11	-365.74	275.93	416.05	-424.19	257.66	437.28	-366.5	353.09	428.21	-428.91	94.233	393.57	-404.16	114.72	315.83	-479.21	65.119	344.46	-465.23	38.96	317.13	-472.48	39.97	378.24	NaN	NaN	NaN	-281.45	47.601	301.8	-217.77	69.741	346.38	-642.93	673.17	171.44	-566.76	572	174.1	-636.53	581.97	180.73	-572.09	660	160.42	-640.64	487.1	186.41	-622.1	471.11	311.27	-804.21	413.58	182.92	-832.16	306.07	197.48	-863.34	370.9	197.85	-773.41	356.13	185.22	-983.28	245.76	203.87	-963.42	231.21	290.61	-1020.4	288.4	253.24	-1045.2	268.59	287.87	-1046.4	271.88	223.26	-1004.8	99.011	204.38	-984.4	94.169	317.95	-949.63	39.992	274.22	-667.69	1494.3	346.04	-707.61	1206.7	342.51
200	0.82917	-464.49	1207.5	336.28	-588.22	1431.9	519.48	-597.58	1471.3	186.35	-577.07	1759.7	373.8	-463.2	998.48	441.83	-479.45	981.85	210.14	-671.21	1015.5	381.11	-673.72	1016.2	288.35	-510.63	892.97	520.95	-588.06	874.25	157.07	-560.47	1065.1	493.87	-575.31	1063.1	184	-690.3	975.78	337.25	-465.89	693.14	497.71	-366.11	626.26	448.77	-433.51	611.71	470.67	-392.97	714.29	474.78	-370.81	524.18	438.87	-414.52	523.34	319.66	-424.46	334.59	448.15	-364.69	275.64	416.26	-423.35	257.75	437.27	-365.05	352.84	428.57	-428.75	94.325	393.54	-403.88	114.8	315.85	-479.15	65.212	344.48	-465.2	39.035	317.12	-472.43	40.061	378.24	NaN	NaN	NaN	-281.33	47.463	301.76	-217.56	69.265	346.43	-634.56	672.74	171.61	-557.28	572.43	173.92	-627.04	581.61	180.65	-563.56	660.45	160.39	-629.77	487.08	185.94	-611.06	470.8	310.95	-793.27	414.78	182.27	-822.37	307.6	197.07	-852.76	372.68	197.2	-763	357.06	184.73	-974.01	248.96	203.35	-954.04	234.04	290.03	-1010.4	292.02	252.88	-1035.3	272.45	287.58	-1036.7	275.9	222.96	-997.33	102.32	203.51	-976.58	96.889	316.91	-942.77	41.577	272.8	-662.28	1495.3	346.44	-702.36	1207.7	343.17
201	0.83333	-459.33	1208.3	336.32	-582.66	1432.8	519.71	-592.42	1472.2	186.56	-571.55	1760.6	374.13	-457.94	999.36	442.09	-474.48	982.7	210.43	-666.14	1016.4	381.7	-668.33	1016.8	289	-505.59	893.78	521.4	-582.63	874.66	157.8	-555.04	1066.1	494.25	-570.54	1063.7	184.47	-685.07	976.51	337.95	-462.3	693.57	498.11	-362.86	626.03	449.32	-430.42	611.91	471.12	-389.19	714.21	475.29	-368.35	523.94	439.33	-411.65	523.47	319.92	-423.3	334.67	448.2	-363.7	275.36	416.48	-422.58	257.85	437.28	-363.69	352.61	428.94	-428.6	94.416	393.52	-403.61	114.9	315.88	-479.09	65.306	344.49	-465.17	39.112	317.11	-472.38	40.15	378.24	NaN	NaN	NaN	-281.21	47.356	301.72	-217.35	68.82	346.48	-626.15	672.38	171.74	-547.79	572.94	173.74	-617.52	581.35	180.57	-555.03	660.96	160.34	-618.87	487.16	185.47	-600	470.6	310.65	-782.27	416.02	181.64	-812.46	309.16	196.66	-842.1	374.47	196.58	-752.51	358.05	184.26	-964.62	252.11	202.9	-944.51	236.83	289.48	-1000.3	295.48	252.61	-1025.3	276.06	287.35	-1026.9	279.71	222.74	-989.43	105.6	202.58	-968.31	99.554	315.84	-935.35	43.348	271.3	-656.9	1496.3	346.85	-697.15	1208.7	343.83
202	0.8375	-454.21	1209.1	336.33	-577.11	1433.7	519.94	-587.3	1473	186.76	-566.04	1761.5	374.44	-452.74	1000.3	442.34	-469.53	983.57	210.71	-661.11	1017.3	382.26	-663.02	1017.4	289.62	-500.6	894.62	521.84	-577.22	875.09	158.5	-549.67	1067	494.62	-565.8	1064.4	184.9	-679.9	977.26	338.62	-458.8	694.01	498.51	-359.71	625.81	449.86	-427.42	612.14	471.56	-385.51	714.14	475.8	-365.98	523.7	439.8	-408.88	523.6	320.18	-422.2	334.76	448.26	-362.77	275.1	416.71	-421.85	257.97	437.3	-362.4	352.4	429.32	-428.47	94.507	393.51	-403.35	114.99	315.93	-479.03	65.402	344.5	-465.14	39.193	317.11	-472.33	40.237	378.24	NaN	NaN	NaN	-281.09	47.275	301.7	-217.15	68.402	346.55	-617.71	672.09	171.85	-538.26	573.53	173.56	-607.96	581.18	180.47	-546.48	661.54	160.28	-607.96	487.34	185.02	-588.94	470.51	310.37	-771.22	417.29	181.06	-802.46	310.75	196.26	-831.37	376.26	196	-741.95	359.08	183.81	-955.1	255.21	202.5	-934.83	239.55	288.95	-990.2	298.76	252.42	-1015.3	279.43	287.18	-1017.1	283.32	222.57	-981.09	108.83	201.61	-959.62	102.15	314.72	-927.37	45.278	269.74	-651.54	1497.3	347.26	-691.98	1209.7	344.51
203	0.84167	-449.14	1209.9	336.32	-571.58	1434.6	520.17	-582.23	1473.9	186.96	-560.54	1762.4	374.73	-447.58	1001.2	442.6	-464.6	984.47	211	-656.12	1018.2	382.8	-657.79	1018	290.19	-495.68	895.48	522.27	-571.82	875.55	159.17	-544.35	1068.1	494.96	-561.08	1065.1	185.32	-674.78	978.03	339.26	-455.37	694.46	498.91	-356.64	625.6	450.39	-424.51	612.38	471.99	-381.9	714.09	476.3	-363.72	523.48	440.27	-406.21	523.73	320.45	-421.16	334.86	448.34	-361.9	274.85	416.95	-421.17	258.08	437.33	-361.17	352.2	429.71	-428.35	94.599	393.53	-403.1	115.1	315.99	-478.97	65.499	344.52	-465.11	39.278	317.1	-472.29	40.324	378.25	NaN	NaN	NaN	-280.98	47.216	301.68	-216.95	68.008	346.64	-609.23	671.88	171.92	-528.72	574.21	173.38	-598.37	581.1	180.36	-537.91	662.19	160.2	-597.03	487.63	184.59	-577.87	470.52	310.09	-760.13	418.59	180.52	-792.37	312.37	195.87	-820.57	378.05	195.45	-731.31	360.17	183.37	-945.43	258.25	202.15	-925.01	242.21	288.46	-980.08	301.87	252.3	-1005.1	282.56	287.05	-1007.2	286.71	222.46	-972.31	112.01	200.6	-950.53	104.66	313.57	-918.85	47.337	268.12	-646.21	1498.3	347.67	-686.85	1210.7	345.18
204	0.84583	-444.12	1210.8	336.3	-566.07	1435.5	520.4	-577.19	1474.8	187.17	-555.04	1763.4	375.01	-442.48	1002.2	442.85	-459.7	985.4	211.3	-651.17	1019.2	383.31	-652.64	1018.6	290.72	-490.8	896.35	522.68	-566.43	876.05	159.8	-539.09	1069.1	495.29	-556.39	1065.8	185.71	-669.72	978.81	339.86	-452.02	694.93	499.3	-353.66	625.41	450.92	-421.67	612.64	472.42	-378.37	714.04	476.79	-361.55	523.27	440.74	-403.64	523.85	320.73	-420.17	334.96	448.43	-361.07	274.63	417.2	-420.52	258.21	437.37	-360.01	352.02	430.09	-428.25	94.693	393.57	-402.85	115.21	316.06	-478.91	65.598	344.54	-465.09	39.366	317.1	-472.24	40.409	378.25	NaN	NaN	NaN	-280.86	47.176	301.67	-216.76	67.635	346.73	-600.73	671.75	171.96	-519.16	574.98	173.2	-588.74	581.13	180.23	-529.34	662.9	160.11	-586.1	488.02	184.18	-566.81	470.64	309.83	-749	419.93	180.02	-782.2	314.02	195.47	-809.71	379.83	194.95	-720.6	361.31	182.96	-935.63	261.22	201.85	-915.04	244.79	287.99	-969.94	304.8	252.23	-994.99	285.45	286.96	-997.25	289.88	222.38	-963.11	115.11	199.54	-941.05	107.08	312.39	-909.81	49.495	266.46	-640.9	1499.3	348.09	-681.76	1211.8	345.85
205	0.85	-439.13	1211.6	336.26	-560.59	1436.4	520.62	-572.19	1475.7	187.37	-549.55	1764.3	375.28	-437.43	1003.2	443.11	-454.81	986.35	211.6	-646.24	1020.1	383.78	-647.55	1019.3	291.2	-485.98	897.24	523.07	-561.05	876.58	160.4	-533.9	1070.2	495.6	-551.7	1066.5	186.07	-664.69	979.6	340.42	-448.74	695.41	499.69	-350.75	625.22	451.44	-418.91	612.92	472.85	-374.92	714.02	477.27	-359.47	523.07	441.21	-401.17	523.97	321.02	-419.23	335.06	448.53	-360.29	274.43	417.46	-419.9	258.34	437.44	-358.89	351.85	430.48	-428.16	94.79	393.64	-402.61	115.33	316.15	-478.85	65.697	344.55	-465.06	39.459	317.1	-472.2	40.495	378.26	NaN	NaN	NaN	-280.75	47.151	301.67	-216.56	67.28	346.83	-592.2	671.69	171.98	-509.58	575.84	173.02	-579.08	581.24	180.09	-520.76	663.68	160.01	-575.17	488.5	183.79	-555.75	470.86	309.59	-737.85	421.3	179.58	-771.95	315.68	195.07	-798.8	381.61	194.5	-709.82	362.5	182.57	-925.68	264.1	201.59	-904.95	247.29	287.55	-959.77	307.55	252.21	-984.78	288.09	286.88	-987.21	292.84	222.34	-953.5	118.12	198.44	-931.21	109.39	311.18	-900.27	51.72	264.76	-635.61	1500.3	348.5	-676.7	1212.9	346.52
206	0.85417	-434.17	1212.4	336.22	-555.13	1437.3	520.85	-567.22	1476.5	187.57	-544.07	1765.3	375.52	-432.42	1004.2	443.37	-449.93	987.34	211.92	-641.34	1021	384.22	-642.52	1019.9	291.64	-481.21	898.13	523.44	-555.67	877.15	160.97	-528.76	1071.2	495.9	-547.03	1067.2	186.41	-659.71	980.4	340.93	-445.53	695.9	500.07	-347.93	625.04	451.96	-416.22	613.21	473.28	-371.54	714	477.74	-357.47	522.88	441.69	-398.81	524.1	321.32	-418.32	335.17	448.66	-359.54	274.24	417.73	-419.31	258.48	437.51	-357.83	351.7	430.87	-428.09	94.892	393.72	-402.37	115.45	316.24	-478.79	65.798	344.57	-465.04	39.556	317.11	-472.15	40.58	378.28	NaN	NaN	NaN	-280.64	47.14	301.67	-216.37	66.943	346.93	-583.66	671.69	171.97	-499.99	576.78	172.83	-569.41	581.44	179.94	-512.18	664.54	159.89	-564.24	489.09	183.42	-544.69	471.19	309.36	-726.67	422.69	179.19	-761.65	317.35	194.68	-787.84	383.36	194.09	-698.99	363.73	182.2	-915.59	266.89	201.36	-894.73	249.69	287.14	-949.57	310.13	252.23	-974.53	290.5	286.82	-977.09	295.59	222.3	-943.49	121.02	197.31	-921.03	111.59	309.95	-890.26	53.983	263.05	-630.35	1501.4	348.92	-671.68	1213.9	347.18
